<?xml version="1.0" standalone="no"?>
<!DOCTYPE svg PUBLIC "-//W3C//DTD SVG 20010904//EN"
 "http://www.w3.org/TR/2001/REC-SVG-20010904/DTD/svg10.dtd">
<svg version="1.0" xmlns="http://www.w3.org/2000/svg"
 width="512.000000pt" height="512.000000pt" viewBox="0 0 512.000000 512.000000"
 preserveAspectRatio="xMidYMid meet">

<g transform="translate(0.000000,512.000000) scale(0.100000,-0.100000)"
fill="#000000" stroke="none">
<path d="M1935 4153 c-119 -17 -272 -81 -373 -158 -41 -30 -228 -234 -537
-580 -261 -294 -490 -555 -509 -582 -64 -90 -80 -144 -80 -273 0 -129 16 -183
80 -273 19 -27 248 -288 509 -582 309 -346 496 -550 537 -580 88 -67 213 -123
322 -146 86 -18 155 -19 1291 -19 1046 0 1208 2 1260 15 172 45 305 179 350
352 22 86 22 2380 0 2466 -45 173 -178 307 -350 352 -52 13 -211 15 -1265 14
-663 -1 -1218 -4 -1235 -6z m2471 -339 c15 -11 37 -33 48 -48 21 -27 21 -31
21 -1206 0 -1175 0 -1179 -21 -1206 -11 -15 -33 -37 -48 -48 -27 -21 -33 -21
-1214 -24 -827 -2 -1203 1 -1240 9 -90 18 -180 71 -258 151 -141 144 -917
1024 -930 1055 -18 41 -18 85 0 126 19 45 936 1074 996 1118 62 45 111 69 175
85 39 10 325 12 1247 11 1192 -2 1197 -2 1224 -23z"/>
<path d="M2653 3180 c-46 -20 -79 -64 -89 -117 -13 -68 8 -98 215 -306 l196
-197 -197 -198 c-108 -108 -202 -210 -208 -225 -17 -47 -12 -101 13 -138 47
-69 121 -96 194 -69 15 6 117 100 225 208 l198 197 197 -197 c163 -161 206
-198 241 -209 116 -34 227 77 193 194 -11 34 -48 77 -209 240 l-196 197 201
203 c217 218 224 229 208 314 -9 49 -69 109 -118 118 -85 16 -96 9 -315 -208
l-202 -202 -193 192 c-231 231 -259 247 -354 203z"/>
</g>
</svg>
