<?xml version="1.0" standalone="no"?>
<!DOCTYPE svg PUBLIC "-//W3C//DTD SVG 20010904//EN"
 "http://www.w3.org/TR/2001/REC-SVG-20010904/DTD/svg10.dtd">
<svg version="1.0" xmlns="http://www.w3.org/2000/svg"
 width="512.000000pt" height="512.000000pt" viewBox="0 0 512.000000 512.000000"
 preserveAspectRatio="xMidYMid meet">

<g transform="translate(0.000000,512.000000) scale(0.100000,-0.100000)"
fill="#000000" stroke="none">
<path d="M877 4764 c-339 -61 -617 -271 -768 -579 -249 -509 -50 -1126 451
-1394 296 -158 669 -162 970 -11 294 148 503 426 565 753 18 97 19 276 1 377
-79 440 -429 783 -871 855 -111 18 -245 18 -348 -1z m305 -644 c87 -27 167
-86 217 -161 56 -84 74 -150 69 -257 -3 -73 -8 -98 -35 -154 -41 -88 -113
-160 -201 -201 -63 -30 -74 -32 -177 -32 -104 0 -114 2 -176 32 -82 40 -159
120 -200 207 -91 194 -10 433 180 535 103 55 212 65 323 31z"/>
<path d="M4364 4766 c-23 -7 -61 -27 -85 -44 -24 -17 -908 -896 -1965 -1954
-1567 -1568 -1925 -1932 -1945 -1973 -34 -72 -34 -199 1 -270 31 -64 91 -124
155 -155 71 -35 198 -35 270 -1 41 20 405 379 1991 1965 1581 1581 1946 1950
1965 1991 19 41 24 66 24 135 0 73 -4 93 -28 142 -32 65 -90 122 -156 151 -57
25 -170 32 -227 13z"/>
<path d="M3910 2443 c-372 -58 -693 -312 -828 -653 -59 -150 -67 -198 -66
-400 0 -172 2 -191 27 -275 15 -49 45 -127 67 -172 253 -534 896 -755 1425
-491 558 279 755 990 419 1511 -158 245 -397 410 -679 468 -84 17 -289 24
-365 12z m277 -648 c125 -37 236 -149 275 -278 85 -281 -146 -561 -441 -533
-134 12 -272 109 -334 235 -30 62 -32 72 -32 176 0 99 3 116 28 169 51 110
119 175 234 222 70 28 191 33 270 9z"/>
</g>
</svg>
